<svg width="73" height="32" viewBox="0 0 73 32" fill="none" xmlns="http://www.w3.org/2000/svg">
<path d="M21.1243 0.947021L19.2986 4.48668L22.0558 6.23789L25.4837 6.16337L21.1243 0.947021Z" fill="#8D4F96"/>
<path d="M13.1506 0.5L20.7143 0.53726L12.9643 15.6647L0.594101 15.6274L13.1506 0.5Z" fill="#8D4F96"/>
<path d="M0.221588 16.3726L12.8899 16.4471L20.7516 31.4627L13.1879 31.5L0.221588 16.3726Z" fill="#8D4F96"/>
<path d="M19.1867 27.327L21.2732 31.0157L25.4463 25.6876L22.2792 25.6503L19.1867 27.327Z" fill="#8D4F96"/>
<path d="M32.4512 18.4592C32.4512 18.5337 32.4512 18.571 32.4512 18.6082C32.4512 18.6455 32.4512 18.6828 32.414 18.72C32.414 18.7573 32.3767 18.7945 32.3767 18.7945C32.3767 18.8318 32.3394 18.8318 32.3022 18.8691C32.2649 18.9063 32.1904 18.9436 32.0786 18.9808C31.9668 19.0181 31.8178 19.0554 31.6688 19.1299C31.5197 19.1671 31.2962 19.2044 31.1099 19.2417C30.8863 19.2789 30.6628 19.2789 30.4019 19.2789C29.9176 19.2789 29.4705 19.2417 29.0979 19.1299C28.688 19.0181 28.3527 18.8691 28.0919 18.6455C27.831 18.4219 27.6075 18.1611 27.4584 17.863C27.3094 17.565 27.2349 17.1924 27.2349 16.7825C27.2349 16.3727 27.3094 16.0001 27.4957 15.6647C27.6447 15.3294 27.8683 15.0686 28.1664 14.845C28.4644 14.6215 28.7998 14.4352 29.2096 14.3234C29.6195 14.2116 30.0666 14.1371 30.551 14.1371C30.7373 14.1371 30.9236 14.1371 31.1099 14.1743C31.2962 14.2116 31.4452 14.2116 31.6315 14.2489C31.7806 14.2861 31.9296 14.3234 32.0414 14.3606C32.1531 14.3979 32.2649 14.4352 32.3022 14.4724C32.3394 14.5097 32.3767 14.5469 32.414 14.5469C32.4512 14.5469 32.4512 14.5842 32.4512 14.6215C32.4512 14.6587 32.4885 14.696 32.4885 14.7332C32.4885 14.7705 32.4885 14.845 32.4885 14.9195C32.4885 14.9941 32.4885 15.0686 32.4885 15.1058C32.4885 15.1431 32.4512 15.2176 32.4512 15.2549C32.4512 15.2921 32.414 15.3294 32.3767 15.3294C32.3394 15.3294 32.3394 15.3667 32.3022 15.3667C32.2649 15.3667 32.1904 15.3294 32.0786 15.2921C32.0041 15.2549 31.8923 15.1804 31.7433 15.1431C31.5943 15.1058 31.4452 15.0313 31.2589 14.9941C31.0726 14.9568 30.8118 15.0313 30.551 15.0313C30.2529 15.0313 30.0294 15.0686 29.8058 15.1431C29.5822 15.2176 29.3959 15.3294 29.2469 15.4784C29.0979 15.6275 28.9861 15.8138 28.8743 16.0373C28.7998 16.2609 28.7625 16.4844 28.7625 16.7453C28.7625 17.0433 28.7998 17.3042 28.8743 17.4905C28.9488 17.714 29.0979 17.863 29.2469 18.0121C29.3959 18.1611 29.5822 18.2356 29.8431 18.3102C30.1039 18.3847 30.3274 18.4219 30.5882 18.4219C30.8491 18.4219 31.0726 18.3847 31.2589 18.3474C31.4452 18.3102 31.5943 18.2729 31.7433 18.1984C31.8923 18.1611 32.0041 18.0866 32.0786 18.0493C32.1531 18.0121 32.2277 17.9748 32.2649 17.9748C32.3022 17.9748 32.3394 17.9748 32.3394 17.9748C32.3394 17.9748 32.3767 18.0121 32.3767 18.0493C32.3767 18.0866 32.414 18.1239 32.414 18.1611C32.4512 18.3102 32.4512 18.3847 32.4512 18.4592Z" fill="#8E4E96"/>
<path d="M39.6049 18.869C39.6422 18.9435 39.6795 19.0181 39.6795 19.0926C39.6795 19.1298 39.6795 19.2044 39.6422 19.2044C39.6049 19.2416 39.5304 19.2416 39.4186 19.2416C39.3069 19.2416 39.1578 19.2416 39.0088 19.2416C38.8225 19.2416 38.6734 19.2416 38.5617 19.2416C38.4499 19.2416 38.3754 19.2416 38.3381 19.2044C38.3009 19.2044 38.2263 19.1671 38.2263 19.1671C38.1891 19.1298 38.1891 19.1298 38.1891 19.0926L37.7047 18.0866H35.022L34.5749 19.0553C34.5749 19.0926 34.5376 19.1298 34.5004 19.1298C34.4631 19.1671 34.4259 19.1671 34.3886 19.2044C34.3513 19.2044 34.2768 19.2416 34.165 19.2416C34.0533 19.2416 33.9415 19.2416 33.7924 19.2416C33.6061 19.2416 33.4944 19.2416 33.3826 19.2416C33.2708 19.2416 33.2335 19.2044 33.1963 19.1671C33.159 19.1298 33.159 19.0926 33.159 19.0553C33.159 19.0181 33.1963 18.9435 33.2335 18.8318L35.4319 14.3979C35.4691 14.3606 35.4691 14.3234 35.5064 14.2861C35.5436 14.2488 35.5809 14.2488 35.6554 14.2116C35.7299 14.2116 35.8045 14.1743 35.9162 14.1743C36.028 14.1743 36.1771 14.1743 36.3634 14.1743C36.5869 14.1743 36.7359 14.1743 36.885 14.1743C36.9968 14.1743 37.1085 14.1743 37.1831 14.2116C37.2576 14.2116 37.2948 14.2488 37.3321 14.2861C37.3694 14.3234 37.4066 14.3606 37.4066 14.3979L39.6049 18.869ZM36.3261 15.1803L35.3201 17.3041H37.3321L36.3261 15.1803Z" fill="#8E4E96"/>
<path d="M46.1627 19.0926C46.1627 19.1298 46.1627 19.1298 46.1254 19.1671C46.1254 19.2044 46.0881 19.2044 46.0136 19.2044C45.9391 19.2044 45.8646 19.2416 45.7528 19.2416C45.641 19.2416 45.492 19.2416 45.3057 19.2416C45.1567 19.2416 45.0449 19.2416 44.9331 19.2416C44.8586 19.2416 44.7841 19.2416 44.7095 19.2044C44.6723 19.2044 44.635 19.1671 44.5978 19.1671C44.5605 19.1298 44.5605 19.1298 44.5605 19.0926L43.9271 17.9748C43.8526 17.863 43.778 17.7512 43.7035 17.6395C43.629 17.5277 43.5545 17.4532 43.4427 17.3786C43.3682 17.3041 43.2564 17.2669 43.1446 17.2296C43.0329 17.1923 42.8838 17.1923 42.7348 17.1923H42.3249V19.0926C42.3249 19.1298 42.3249 19.1298 42.2877 19.1671C42.2504 19.2044 42.2131 19.2044 42.1759 19.2044C42.1386 19.2044 42.0641 19.2416 41.9523 19.2416C41.8405 19.2416 41.7288 19.2416 41.617 19.2416C41.468 19.2416 41.3562 19.2416 41.2817 19.2416C41.1699 19.2416 41.0954 19.2416 41.0581 19.2044C41.0208 19.2044 40.9463 19.1671 40.9463 19.1671C40.9091 19.1298 40.9091 19.1298 40.9091 19.0926V14.5842C40.9091 14.4724 40.9463 14.3979 41.0208 14.3234C41.0954 14.2488 41.2071 14.2488 41.3189 14.2488H43.1819C43.3682 14.2488 43.5172 14.2488 43.629 14.2488C43.7408 14.2488 43.8526 14.2488 43.9643 14.2861C44.2624 14.3234 44.5232 14.3606 44.7468 14.4351C44.9704 14.5097 45.1567 14.5842 45.343 14.696C45.5293 14.8077 45.641 14.9568 45.7155 15.1058C45.7901 15.2548 45.8273 15.4411 45.8273 15.6274C45.8273 15.7765 45.7901 15.9628 45.7528 16.0746C45.6783 16.2236 45.6038 16.3354 45.492 16.4472C45.3802 16.5589 45.2312 16.6335 45.0449 16.7452C44.8586 16.8198 44.6723 16.8943 44.4487 16.9315C44.5605 16.9688 44.6723 17.0061 44.7468 17.0806C44.8586 17.1178 44.9331 17.1923 45.0076 17.2669C45.0821 17.3414 45.1567 17.4159 45.2312 17.5277C45.3057 17.6395 45.3802 17.714 45.4547 17.863L46.0509 18.8318C46.0881 18.9436 46.1254 19.0181 46.1627 19.0553V19.0926ZM44.2997 15.702C44.2997 15.5529 44.2624 15.4039 44.1506 15.2921C44.0389 15.1803 43.8526 15.1058 43.629 15.0686C43.5545 15.0686 43.48 15.0313 43.3682 15.0313C43.2564 15.0313 43.1446 15.0313 42.9956 15.0313H42.3249V16.4472H43.0701C43.2937 16.4472 43.4427 16.4472 43.5918 16.4099C43.7408 16.3726 43.8898 16.3354 43.9643 16.2609C44.0761 16.1863 44.1506 16.1118 44.1879 16.0373C44.2624 15.9255 44.2997 15.8137 44.2997 15.702Z" fill="#8E4E96"/>
<path d="M53.8009 16.6707C53.8009 17.0806 53.7264 17.4532 53.5773 17.7885C53.4283 18.1238 53.2047 18.3847 52.9067 18.6082C52.6086 18.8318 52.2732 19.0181 51.8261 19.1298C51.4163 19.2416 50.8946 19.3161 50.3357 19.3161C49.7768 19.3161 49.2925 19.2789 48.8826 19.1671C48.4728 19.0553 48.1374 18.9063 47.8393 18.72C47.5785 18.4964 47.355 18.2356 47.2059 17.9375C47.0569 17.6022 46.9824 17.2296 46.9824 16.7825C46.9824 16.3726 47.0569 16 47.2059 15.702C47.355 15.3666 47.5785 15.1058 47.8766 14.8822C48.1747 14.6587 48.51 14.4724 48.9571 14.3606C49.367 14.2488 49.8886 14.1743 50.4475 14.1743C50.9692 14.1743 51.4535 14.2116 51.8634 14.3234C52.2732 14.4351 52.6086 14.5842 52.9067 14.7705C53.1675 14.994 53.391 15.2548 53.5401 15.5529C53.7636 15.8883 53.8009 16.2609 53.8009 16.6707ZM52.3105 16.7452C52.3105 16.4844 52.2732 16.2609 52.236 16.0373C52.1615 15.8137 52.0869 15.6274 51.9379 15.4784C51.7889 15.3294 51.6026 15.2176 51.379 15.1058C51.1555 15.0313 50.8574 14.994 50.4848 14.994C50.1122 14.994 49.8141 15.0313 49.5905 15.1431C49.367 15.2548 49.1434 15.3666 48.9944 15.5157C48.8454 15.6647 48.7336 15.851 48.6963 16.0746C48.6218 16.2981 48.6218 16.5217 48.6218 16.7452C48.6218 17.006 48.6591 17.2669 48.6963 17.4904C48.7708 17.714 48.8454 17.9003 48.9944 18.0493C49.1434 18.1984 49.3297 18.3101 49.5533 18.3847C49.7768 18.4592 50.0749 18.4964 50.4475 18.4964C50.8201 18.4964 51.1182 18.4592 51.3418 18.3474C51.5653 18.2729 51.7889 18.1238 51.9379 17.9748C52.0869 17.8258 52.1987 17.6395 52.236 17.4159C52.2732 17.1923 52.3105 16.9688 52.3105 16.7452Z" fill="#8E4E96"/>
<path d="M57.4152 17.8258C57.4152 18.0493 57.3779 18.2729 57.3406 18.4219C57.2661 18.6082 57.1916 18.7572 57.0426 18.869C56.8935 18.9808 56.7072 19.0926 56.4837 19.1671C56.2601 19.2416 55.962 19.2789 55.6267 19.2789C55.5149 19.2789 55.4031 19.2789 55.2914 19.2789C55.1796 19.2789 55.0678 19.2416 54.9933 19.2416C54.9188 19.2416 54.807 19.2044 54.7697 19.1671C54.6952 19.1298 54.6579 19.1298 54.6207 19.0926C54.5834 19.0926 54.5834 19.0553 54.5834 19.0553C54.5834 19.0553 54.5462 19.0181 54.5462 18.9808C54.5462 18.9435 54.5462 18.9063 54.5089 18.869C54.5089 18.8318 54.5089 18.7572 54.5089 18.72C54.5089 18.6455 54.5089 18.571 54.5089 18.4964C54.5089 18.4219 54.5089 18.3847 54.5462 18.3474C54.5462 18.3101 54.5834 18.2729 54.5834 18.2729C54.5834 18.2729 54.6207 18.2356 54.6579 18.2356C54.6952 18.2356 54.7325 18.2356 54.7697 18.2729C54.807 18.3101 54.8815 18.3101 54.9188 18.3101C54.956 18.3101 55.0305 18.3474 55.1051 18.3474C55.1796 18.3474 55.2541 18.3847 55.3659 18.3847C55.4777 18.3847 55.5522 18.3847 55.6267 18.3474C55.7012 18.3101 55.7757 18.3101 55.813 18.2356C55.8502 18.1984 55.8875 18.1238 55.9248 18.0493C55.962 17.9748 55.962 17.863 55.962 17.7512V14.3234C55.962 14.2861 55.962 14.2861 55.9993 14.2488C56.0365 14.2116 56.0738 14.2116 56.1111 14.2116C56.1483 14.2116 56.2228 14.1743 56.3346 14.1743C56.4464 14.1743 56.5582 14.1743 56.67 14.1743C56.819 14.1743 56.9308 14.1743 57.0053 14.1743C57.0798 14.1743 57.1543 14.1743 57.2289 14.2116C57.3034 14.2116 57.3406 14.2488 57.3406 14.2488C57.3779 14.2861 57.3779 14.2861 57.3779 14.3234V17.8258H57.4152Z" fill="#8E4E96"/>
<path d="M65.6123 16.6707C65.6123 17.0806 65.5377 17.4532 65.3887 17.7885C65.2397 18.1238 65.0161 18.3847 64.718 18.6082C64.42 18.8318 64.0846 19.0181 63.6375 19.1298C63.2276 19.2416 62.706 19.3161 62.1471 19.3161C61.5882 19.3161 61.1038 19.2789 60.694 19.1671C60.2841 19.0553 59.9488 18.9063 59.6507 18.72C59.3899 18.4964 59.1663 18.2356 59.0173 17.9375C58.8683 17.6022 58.7937 17.2296 58.7937 16.7825C58.7937 16.3726 58.8683 16 59.0173 15.702C59.1663 15.3666 59.3899 15.1058 59.688 14.8822C59.9861 14.6587 60.3214 14.4724 60.7685 14.3606C61.1784 14.2488 61.7 14.1743 62.2589 14.1743C62.7805 14.1743 63.2649 14.2116 63.6748 14.3234C64.0846 14.4351 64.42 14.5842 64.718 14.7705C64.9788 14.994 65.2024 15.2548 65.3514 15.5529C65.575 15.8883 65.6123 16.2609 65.6123 16.6707ZM64.1219 16.7452C64.1219 16.4844 64.0846 16.2609 64.0474 16.0373C63.9728 15.8137 63.8983 15.6274 63.7493 15.4784C63.6002 15.3294 63.4139 15.2176 63.1904 15.1058C62.9668 15.0313 62.6688 14.994 62.2962 14.994C61.9236 14.994 61.6255 15.0313 61.4019 15.1431C61.1784 15.2548 60.9548 15.3666 60.8058 15.5157C60.6567 15.6647 60.545 15.851 60.5077 16.0746C60.4332 16.2981 60.4332 16.5217 60.4332 16.7452C60.4332 17.006 60.4704 17.2669 60.5077 17.4904C60.5822 17.714 60.6567 17.9003 60.8058 18.0493C60.9548 18.1984 61.1411 18.3101 61.3647 18.3847C61.5882 18.4592 61.8863 18.4964 62.2589 18.4964C62.6315 18.4964 62.9296 18.4592 63.1531 18.3474C63.3767 18.2729 63.6002 18.1238 63.7493 17.9748C63.8983 17.8258 64.0101 17.6395 64.0474 17.4159C64.0846 17.1923 64.1219 16.9688 64.1219 16.7452Z" fill="#8E4E96"/>
<path d="M72.9897 18.869C72.9897 18.9436 72.9897 18.9808 72.9525 19.0181C72.9152 19.0553 72.8779 19.0926 72.8407 19.1298C72.8034 19.1671 72.7289 19.1671 72.6544 19.2044C72.5799 19.2044 72.5053 19.2416 72.4308 19.2416H71.7974C71.6856 19.2416 71.5739 19.2416 71.4621 19.2044C71.3503 19.2044 71.2758 19.1671 71.2013 19.0926C71.1267 19.0553 71.0522 18.9808 70.9777 18.9063C70.9032 18.8318 70.8287 18.72 70.7169 18.6082L68.9284 16.2609C68.8166 16.1118 68.7049 15.9628 68.6303 15.8137C68.5186 15.6647 68.444 15.5157 68.3323 15.3294C68.3323 15.5157 68.3695 15.702 68.3695 15.8883C68.3695 16.0746 68.3695 16.2609 68.3695 16.4472V19.0553C68.3695 19.0926 68.3695 19.0926 68.3323 19.1298C68.295 19.1671 68.295 19.1671 68.2205 19.1671C68.146 19.1671 68.1087 19.2044 68.0342 19.2044C67.9597 19.2044 67.8479 19.2044 67.6989 19.2044C67.5871 19.2044 67.4753 19.2044 67.3635 19.2044C67.2517 19.2044 67.2145 19.2044 67.1772 19.1671C67.14 19.1298 67.1027 19.1298 67.0654 19.1298C67.0654 19.0926 67.0282 19.0926 67.0282 19.0553V14.5842C67.0282 14.4724 67.0654 14.3606 67.1772 14.3234C67.289 14.2488 67.4008 14.2488 67.5498 14.2488H68.3323C68.4813 14.2488 68.5931 14.2488 68.6676 14.2861C68.7794 14.2861 68.8539 14.3234 68.9284 14.3606C69.0029 14.3979 69.0775 14.4351 69.152 14.5097C69.2265 14.5842 69.301 14.6587 69.3383 14.7705L70.7169 16.5962C70.7914 16.708 70.8659 16.8198 70.9404 16.9315C71.015 17.0433 71.0895 17.1551 71.164 17.2669C71.2385 17.3786 71.313 17.4904 71.3876 17.5649C71.4621 17.6767 71.5366 17.7885 71.5739 17.863C71.5739 17.6767 71.5366 17.4904 71.5366 17.3041C71.5366 17.1178 71.5366 16.9315 71.5366 16.7452V14.3979C71.5366 14.3606 71.5366 14.3606 71.5739 14.3234C71.6111 14.2861 71.6484 14.2861 71.6856 14.2861C71.7229 14.2861 71.7974 14.2488 71.8719 14.2488C71.9465 14.2488 72.0582 14.2488 72.2073 14.2488C72.319 14.2488 72.4308 14.2488 72.5053 14.2488C72.5799 14.2488 72.6544 14.2488 72.6916 14.2861C72.7289 14.2861 72.7662 14.3234 72.8034 14.3234C72.8034 14.3606 72.8407 14.3606 72.8407 14.3979V18.869H72.9897Z" fill="#8E4E96"/>
</svg>
